<svg width="230" height="46" viewBox="0 0 230 46" fill="none" xmlns="http://www.w3.org/2000/svg">
<g clip-path="url(#clip0_1184_10164)">
<path d="M44.1014 41.1023L36.8014 28.7526H40.2548L45.6168 37.9082L50.0027 28.7526H53.1209L47.0156 41.2399C45.6606 43.9935 44.3929 44.7094 42.7026 44.7094C42.047 44.7094 41.3913 44.5855 40.7648 44.3515V41.4189C41.2601 41.832 41.9158 42.0523 42.5715 42.0523C43.1981 42.0523 43.7227 41.8182 44.1014 41.1023Z" fill="#939393"/>
<path d="M69.1402 37.8032H60.1435V44.7094H57.202V28.7526H60.1435V35.1855H69.1402V28.7526H72.0817V44.7094H69.1402V37.8032Z" fill="#939393"/>
<path d="M79.3319 40.6715L89.0274 28.7526H92.4867V44.7094H89.3067V32.6095L79.5646 44.7094H76.1673V28.7526H79.3474V40.6715H79.3319Z" fill="#939393"/>
<path d="M96.5618 44.6955V28.7526H103.975C107.771 28.7526 109.721 30.0742 109.721 32.7174C109.721 34.5399 108.946 35.7503 107.19 36.3902C109.289 36.7379 110.241 37.9901 110.241 40.0629C110.241 43.36 107.711 44.7094 103.558 44.7094L96.5618 44.6955ZM103.528 35.4998C105.448 35.4998 106.669 34.7068 106.669 33.3296C106.669 32.0497 105.76 31.368 103.603 31.368H99.6133V35.4859H103.528V35.4998ZM103.751 42.0801C106.089 42.0801 107.16 41.3706 107.16 39.8542C107.16 38.3378 105.939 37.7257 103.796 37.7257H99.5984V42.0662L103.751 42.0801Z" fill="#939393"/>
<path d="M125.372 37.8111H117.409V42.0895H126.566V44.7094H114.326V28.7526H126.294V31.3726H117.409V35.1771H125.372V37.8111Z" fill="#939393"/>
<path d="M133.764 39.7386V44.7094H130.641V28.7526H136.46C141.975 28.7526 144.321 30.5488 144.321 34.1551C144.321 37.8728 141.579 39.7386 136.46 39.7386H133.764ZM133.764 31.3703V37.1209H136.689C139.583 37.1209 141.076 36.2576 141.076 34.0855C141.076 32.1222 139.782 31.3703 136.734 31.3703H133.764Z" fill="#939393"/>
<path d="M161.825 43.2981C161.001 44.3118 158.817 45.4137 155.955 45.4137C150.56 45.3842 146.96 42.1375 146.96 36.7019C146.96 31.6334 150.517 28.0489 155.998 28.0489C158.601 28.0489 160.523 28.8715 161.493 29.562V33.749C160.235 31.9273 158.195 30.8254 155.998 30.8107C152.383 30.8107 150.156 33.1906 150.156 36.7312C150.156 40.0073 152.122 42.5782 155.94 42.6517C158.832 42.6517 160.856 41.3001 161.84 39.596L161.825 43.2981Z" fill="#939393"/>
<path d="M168.865 40.6715L177.838 28.7526H181.041V44.7094H178.098V32.6095L169.066 44.7094H165.921V28.7526H168.865V40.6715Z" fill="#939393"/>
<path d="M198.561 31.3703H192.646V44.7094H189.505V31.3703H183.681V28.7526H198.561V31.3703Z" fill="#939393"/>
<path d="M212.484 37.8111H204.52V42.0895H213.678V44.7094H201.438V28.7526H213.406V31.3726H204.52V35.1771H212.484V37.8111Z" fill="#939393"/>
<path d="M229.997 31.3703H223.987V44.7094H220.795V31.3703H214.878V28.7526H229.997V31.3703Z" fill="#939393"/>
<path d="M82.0998 10.0605L85.7647 7.39872H73.525V23.3555H85.7647V20.7077H77.0201V16.6105H84.477V13.9626H77.0201V10.0605H82.0998Z" fill="#939393"/>
<path d="M63.3495 13.6282H59.1873V10.0605H65.8468L69.4401 7.39872H55.7604V23.3555H62.9194C66.9289 23.3555 69.232 21.5299 69.232 18.3386C69.232 15.3005 67.137 13.6282 63.3495 13.6282ZM62.7529 20.7077H59.1873V16.2899H62.7668C64.945 16.2899 65.9577 17.0286 65.9577 18.5058C65.9439 19.997 64.8755 20.7077 62.7529 20.7077Z" fill="#939393"/>
<path d="M95.8281 7.39872H88.4024V23.3555H92.2966V18.8403H95.8281C100.574 18.8403 103.522 16.6384 103.522 13.1126C103.522 9.58669 100.574 7.39872 95.8281 7.39872ZM95.7493 16.1785H92.2966V10.0605H95.7493C98.2403 10.0605 99.6119 11.1475 99.6119 13.1265C99.6119 15.1054 98.2403 16.1785 95.7493 16.1785Z" fill="#939393"/>
<path d="M48.6455 19.5353C47.7235 20.0455 46.6739 20.3225 45.6241 20.308C42.461 20.308 40.1773 17.9899 40.1773 14.7972C40.1773 11.6044 42.4752 9.28633 45.6241 9.28633C46.759 9.27175 47.8795 9.62163 48.8157 10.3069L51.3264 8.39701L51.1562 8.25122C49.6951 6.92455 47.7235 6.22476 45.4824 6.22476C43.0568 6.22476 40.844 7.07034 39.2695 8.60112C37.695 10.1319 36.8014 12.3187 36.8014 14.7097C36.8014 17.1005 37.6667 19.3166 39.2553 20.8911C40.844 22.4656 43.0426 23.3549 45.4539 23.3549C47.9788 23.3549 50.1774 22.4511 51.681 20.8037L49.4114 19.0834L48.6455 19.5353Z" fill="#939393"/>
<path d="M28.6451 14.7881C28.6451 13.9512 28.57 13.1143 28.4198 12.292L25.3418 14.5091C25.3418 14.5971 25.3418 14.7 25.3418 14.8027C25.3418 20.7344 20.4319 25.5502 14.3659 25.565C8.29979 25.5796 3.37488 20.7638 3.35986 14.8321C3.35986 8.87104 8.26976 4.05521 14.3508 4.05521C16.573 4.05521 18.7352 4.70124 20.567 5.93456L23.3448 3.93775C17.2037 -0.92212 8.2097 0.017553 3.25476 6.02265C-1.70018 12.0278 -0.739224 20.8078 5.4019 25.653C11.543 30.4982 20.537 29.5586 25.477 23.5534C27.534 21.0721 28.6451 17.9741 28.6451 14.7881Z" fill="#939393"/>
<path d="M25.4427 6.22476C26.1375 7.06307 26.7242 7.98811 27.2028 8.9565L13.8324 18.1924L8.24335 14.9115V10.9656L13.8324 14.2465L25.4427 6.22476Z" fill="#939393"/>
</g>
<defs>
<clipPath id="clip0_1184_10164">
<rect width="230" height="46" fill="white"/>
</clipPath>
</defs>
</svg>
